<svg width="32" height="32" viewBox="0 0 32 32" fill="none" xmlns="http://www.w3.org/2000/svg">
<path d="M16 0H24.233C28.5226 0 32 3.4774 32 7.76699V24.233C32 28.5226 28.5226 32 24.233 32H16V0Z" fill="url(#paint0_linear_323_16879)"/>
<path d="M0 7.76699C0 3.4774 3.4774 0 7.76699 0H16V32H7.76699C3.4774 32 0 28.5226 0 24.233V7.76699Z" fill="url(#paint1_linear_323_16879)"/>
<rect x="12" width="4" height="4" fill="white"/>
<rect x="12" y="8" width="4" height="4" fill="white"/>
<rect x="12" y="24" width="4" height="4" fill="white"/>
<rect x="12" y="16" width="4" height="4" fill="white"/>
<rect x="16" y="4" width="4" height="4" fill="white"/>
<rect x="16" y="20" width="4" height="4" fill="white"/>
<rect x="16" y="12" width="4" height="4" fill="white"/>
<rect x="16" y="28" width="4" height="4" fill="white"/>
<defs>
<linearGradient id="paint0_linear_323_16879" x1="24" y1="0" x2="24" y2="32" gradientUnits="userSpaceOnUse">
<stop stop-color="#8B73FF"/>
<stop offset="1" stop-color="#7559FF"/>
</linearGradient>
<linearGradient id="paint1_linear_323_16879" x1="8" y1="0" x2="8" y2="32" gradientUnits="userSpaceOnUse">
<stop stop-color="#39E6C9"/>
<stop offset="1" stop-color="#13BFA3"/>
</linearGradient>
</defs>
</svg>
